<svg aria-hidden="true" style="position: absolute; width: 0; height: 0; overflow: hidden;" version="1.1" xmlns="http://www.w3.org/2000/svg" xmlns:xlink="http://www.w3.org/1999/xlink">
<defs>
<symbol id="icon-facebook" viewBox="0 0 19 32">
<path d="M16.905 17.967h-4.604v13.75h-6.138v-13.75h-5.033v-5.647h5.033v-4.358c0-4.911 2.946-7.673 7.427-7.673 2.148 0 4.42 0.43 4.42 0.43v4.849h-2.517c-2.455 0-3.192 1.473-3.192 3.069v3.683h5.463l-0.859 5.647z"></path>
</symbol>
<symbol id="icon-tiktok" viewBox="0 0 31 32">
<path d="M21.102 8.117c-0.853-0.974-1.323-2.225-1.323-3.52h-3.857v15.478c-0.029 0.838-0.383 1.631-0.986 2.214s-1.409 0.907-2.247 0.907c-1.772 0-3.245-1.448-3.245-3.245 0-2.147 2.072-3.757 4.207-3.096v-3.944c-4.306-0.574-8.076 2.771-8.076 7.040 0 4.157 3.445 7.115 7.102 7.115 3.919 0 7.102-3.183 7.102-7.115v-7.851c1.564 1.123 3.442 1.726 5.367 1.723v-3.857c0 0-2.347 0.112-4.044-1.847z"></path>
</symbol>
<symbol id="icon-instagram" viewBox="0 0 31 32">
<path d="M16.643 3.348c1.404 0.004 2.117 0.011 2.732 0.029l0.242 0.009c0.28 0.010 0.555 0.022 0.889 0.037 1.328 0.062 2.234 0.272 3.029 0.58 0.824 0.317 1.518 0.746 2.212 1.439 0.635 0.624 1.126 1.379 1.439 2.212 0.308 0.795 0.518 1.701 0.58 3.031 0.015 0.332 0.027 0.608 0.037 0.889l0.008 0.242c0.019 0.614 0.026 1.327 0.029 2.731l0.001 0.931v1.635c0.003 0.91-0.007 1.821-0.029 2.731l-0.008 0.242c-0.010 0.281-0.022 0.557-0.037 0.889-0.062 1.329-0.275 2.234-0.582 3.031-0.313 0.833-0.804 1.588-1.439 2.212-0.624 0.635-1.379 1.126-2.212 1.439-0.795 0.308-1.701 0.518-3.029 0.58l-0.889 0.037-0.242 0.008c-0.615 0.017-1.328 0.026-2.732 0.029l-2.565 0.001c-0.911 0.003-1.822-0.006-2.732-0.029l-0.242-0.007c-0.296-0.011-0.593-0.024-0.889-0.039-1.328-0.062-2.234-0.272-3.031-0.58-0.833-0.313-1.587-0.804-2.211-1.439-0.635-0.624-1.127-1.378-1.44-2.212-0.308-0.795-0.518-1.701-0.58-3.031l-0.037-0.889-0.006-0.242c-0.023-0.91-0.033-1.821-0.031-2.731v-2.566c-0.003-0.91 0.006-1.821 0.027-2.731l0.009-0.242c0.010-0.281 0.022-0.557 0.037-0.889 0.062-1.329 0.272-2.234 0.58-3.031 0.314-0.834 0.807-1.588 1.443-2.212 0.623-0.635 1.377-1.126 2.209-1.439 0.796-0.308 1.701-0.518 3.031-0.58 0.332-0.015 0.609-0.027 0.889-0.037l0.242-0.007c0.91-0.022 1.821-0.032 2.731-0.029l2.566-0.001zM15.36 9.589c-1.655 0-3.243 0.658-4.413 1.828s-1.828 2.758-1.828 4.413c0 1.655 0.658 3.243 1.828 4.413s2.758 1.828 4.413 1.828c1.655 0 3.243-0.658 4.413-1.828s1.828-2.758 1.828-4.413c0-1.655-0.658-3.243-1.828-4.413s-2.758-1.828-4.413-1.828zM15.36 12.086c0.492-0 0.979 0.097 1.433 0.285s0.867 0.464 1.215 0.812 0.624 0.76 0.812 1.215c0.188 0.454 0.285 0.941 0.285 1.433s-0.097 0.979-0.285 1.433c-0.188 0.454-0.464 0.867-0.812 1.215s-0.76 0.624-1.215 0.812c-0.454 0.188-0.941 0.285-1.433 0.285-0.993 0-1.946-0.395-2.648-1.097s-1.097-1.655-1.097-2.648 0.395-1.946 1.097-2.648c0.702-0.702 1.655-1.097 2.648-1.097zM21.915 7.717c-0.414 0-0.811 0.164-1.103 0.457s-0.457 0.689-0.457 1.103c0 0.414 0.164 0.811 0.457 1.103s0.69 0.457 1.103 0.457c0.414 0 0.811-0.164 1.103-0.457s0.457-0.689 0.457-1.103c0-0.414-0.164-0.811-0.457-1.103s-0.689-0.457-1.103-0.457z"></path>
</symbol>
</defs>
</svg>